<svg width="1000" height="318" viewBox="0 0 1000 318" xmlns="http://www.w3.org/2000/svg" xmlns:xlink="http://www.w3.org/1999/xlink">
    <g id="Design">
        <g id="UniFi-Surveillancev05">
            <g id="Title01">
                <g id="Group-8">
                    <g id="Group-26">
                        <path id="Protect-Logo" fill="#1e1e20" fill-rule="evenodd" stroke="none" d="M 366.794128 49.037933 L 360.740143 77.427216 C 329.48584 79.861206 313.467712 92.28392 303.125824 106.269089 C 297.449585 114.119949 293.806549 122.929001 291.513458 131.090424 L 291.513458 131.090424 L 262.71109 131.097656 C 265.372375 118.737534 270.456696 103.984375 280.435242 89.967896 C 295.719513 68.127045 323.876953 50.123718 366.794128 49.037933 L 366.794128 49.037933 Z M 240.478439 57.991455 C 263.720032 25.030365 307.096802 -2.075714 377.201721 0.131958 L 377.201721 0.131958 L 371.246368 28.049347 C 311.651733 27.871185 281.393646 49.387054 263.161804 74.278198 C 249.71106 92.96524 243.630585 114.673676 241.007797 131.090424 L 241.007797 131.090424 L 212.794998 131.088028 C 215.379257 111.358551 222.229736 83.578384 240.478439 57.991455 Z M 67.951927 102.823471 L 35.754425 254.16626 C 30.128704 280.749908 38.107697 292.577942 58.500336 292.577942 C 78.582573 292.577942 91.900948 280.749908 97.507416 254.16626 L 129.697693 102.823471 L 163.370224 102.823471 L 131.764648 251.520416 C 121.413116 300.265106 93.351891 318.005981 53.177795 318.005981 C 12.702927 318.005981 -7.670458 300.265106 2.656998 251.520416 L 34.279415 102.823471 L 67.951927 102.823471 Z M 249.584259 150.714218 C 273.800385 150.714218 286.784271 161.653915 280.018005 193.875916 L 254.598816 313.880249 L 222.685226 313.880249 L 245.739136 204.793945 C 250.154541 184.125534 245.739136 176.13504 229.785965 176.13504 C 216.79483 176.13504 202.314255 186.470444 197.877197 207.174942 L 175.12648 313.880249 L 143.220139 313.880249 L 176.907074 154.850311 L 207.035248 154.850311 L 203.173279 173.467514 L 204.073196 173.467514 C 215.011841 159.287338 231.86734 150.714218 249.584259 150.714218 Z M 344.325653 154.850311 L 310.672394 313.880249 L 278.768463 313.880249 L 312.438568 154.850311 L 344.325653 154.850311 Z M 488.158844 102.823471 L 481.96283 131.20311 L 407.950226 131.20311 L 395.553406 189.736694 L 469.693604 189.736694 L 463.812805 218.092255 L 389.643768 218.092255 L 369.258362 313.881927 L 335.56897 313.881927 L 380.480927 102.823471 L 488.158844 102.823471 Z M 533.535645 154.850311 L 499.851074 313.880249 L 467.963989 313.880249 L 501.624481 154.850311 L 533.535645 154.850311 Z M 980.185608 154.866196 C 988.446167 154.866196 995.164246 190.487595 995.164246 234.381165 C 995.164246 278.301208 988.446167 313.867249 980.185608 313.867249 L 980.185608 313.867249 L 606.493896 313.867249 C 598.199646 313.867249 591.43103 278.301208 591.43103 234.381165 C 591.43103 190.487595 598.199646 154.866196 606.493896 154.866196 L 606.493896 154.866196 Z M 756.530762 209.899261 C 736.951416 209.899261 731.431519 224.46225 731.431519 245.431595 C 731.431519 266.40094 737.829712 280.966339 756.530762 280.966339 C 775.354553 280.966339 781.755005 266.40094 781.755005 245.431595 C 781.755005 224.46225 776.232788 209.899261 756.530762 209.899261 Z M 843.885803 209.899261 C 822.67749 209.899261 818.911743 228.733154 818.911743 246.435547 C 818.911743 277.701752 832.591064 280.966339 843.635559 280.966339 C 858.318237 280.966339 867.353577 271.548187 867.353577 256.607239 L 867.353577 256.607239 L 854.552551 256.607239 C 854.552551 260.625336 853.424011 271.675781 843.760681 271.675781 C 833.596863 271.675781 832.465942 260.124573 832.465942 251.082001 L 832.465942 247.191498 L 867.731384 247.191498 L 867.731384 240.033966 C 867.731384 221.200089 862.711975 209.899261 843.885803 209.899261 Z M 898.230103 209.899261 C 878.653137 209.899261 873.133301 224.46225 873.133301 245.431595 C 873.133301 266.40094 878.653137 280.966339 898.230103 280.966339 C 914.921936 280.966339 920.444214 270.797058 921.32251 254.59938 L 921.32251 254.59938 L 908.521423 254.59938 C 908.521423 264.771057 905.759094 271.047424 898.230103 270.91983 C 888.44165 270.91983 886.68512 260.372559 886.68512 245.431595 C 886.68512 230.490631 888.44165 219.945801 898.230103 219.945801 C 906.136902 219.693008 907.893433 227.854431 907.893433 234.130768 L 907.893433 234.130768 L 921.447571 234.130768 C 921.447571 225.718964 918.435059 209.646515 898.230103 209.899261 Z M 945.172852 192.447296 L 931.618713 192.447296 L 931.618713 211.656738 L 922.33313 211.656738 L 922.33313 221.700851 L 931.618713 221.700851 L 931.618713 263.639526 C 931.618713 277.451385 936.135132 279.962402 945.297974 279.962402 C 949.564209 279.962402 953.329895 279.584412 956.214966 278.830872 L 956.214966 278.830872 L 956.214966 268.789185 C 954.961304 269.03714 953.329895 269.164764 951.32074 269.164764 C 946.676758 269.164764 945.172852 267.282104 945.172852 262.007233 L 945.172852 262.007233 L 945.172852 221.700851 L 956.214966 221.700851 L 956.214966 211.656738 L 945.172852 211.656738 L 945.172852 192.447296 Z M 805.858032 192.447296 L 792.303894 192.447296 L 792.303894 211.656738 L 783.018311 211.656738 L 783.018311 221.700851 L 792.303894 221.700851 L 792.303894 263.639526 C 792.303894 277.451385 796.820374 279.962402 805.980774 279.962402 C 810.24939 279.962402 814.012695 279.584412 816.900146 278.830872 L 816.900146 278.830872 L 816.900146 268.789185 C 815.644165 269.03714 814.012695 269.164764 812.003479 269.164764 C 807.361938 269.164764 805.858032 267.282104 805.858032 262.007233 L 805.858032 262.007233 L 805.858032 221.700851 L 816.900146 221.700851 L 816.900146 211.656738 L 805.858032 211.656738 L 805.858032 192.447296 Z M 667.291626 189.555893 L 638.929626 189.555893 L 638.929626 279.208862 L 653.234497 279.208862 L 653.234497 242.167023 L 665.785339 242.167023 C 682.599915 242.167023 692.013 231.747345 692.013 215.674896 C 692.013 200.355927 684.481628 189.555893 667.291626 189.555893 L 667.291626 189.555893 Z M 727.162903 209.899261 C 719.506348 209.899261 714.487 214.668549 711.474426 222.20401 L 711.474426 222.20401 L 711.224243 222.20401 L 711.224243 211.656738 L 697.670044 211.656738 L 697.670044 279.208862 L 711.224243 279.208862 L 711.224243 238.777252 C 711.224243 226.222153 718.628113 223.458328 724.776001 223.458328 C 727.0354 223.458328 729.419983 223.961487 730.42334 224.211884 L 730.42334 224.211884 L 730.42334 210.402466 C 729.545044 210.149658 728.666809 209.899261 727.162903 209.899261 Z M 756.529968 219.94458 C 766.443604 219.94458 768.202576 230.491852 768.202576 245.4328 C 768.202576 262.634399 766.443604 270.921021 756.529968 270.921021 C 746.741516 270.921021 744.982666 262.634399 744.982666 245.4328 C 744.982666 230.491852 746.741516 219.94458 756.529968 219.94458 Z M 843.76001 219.189819 C 851.416565 219.189819 854.176514 225.718964 854.176514 234.258392 L 854.176514 234.258392 L 854.176514 237.898529 L 832.46759 237.898529 L 832.46759 236.516632 C 832.46759 227.729248 835.100037 219.189819 843.76001 219.189819 Z M 662.396423 200.355469 C 673.816284 200.355469 677.704773 206.256256 677.704773 215.927185 C 677.704773 227.225601 671.056335 231.368896 663.39978 231.368896 L 663.39978 231.368896 L 653.233521 231.368896 L 653.233521 200.355469 Z M 569.507751 102.824432 C 581.175537 102.824432 591.291199 111.696091 591.291199 125.091431 C 591.291199 138.489166 581.175537 147.358414 569.507751 147.358414 C 556.71637 147.358414 547.611267 137.774139 547.611267 125.091431 C 547.611267 111.696091 557.726929 102.824432 569.507751 102.824432 Z M 569.507751 106.690887 C 559.87085 106.690887 552.370789 114.255264 552.370789 125.091431 C 552.370789 135.212555 558.920471 143.489548 569.507751 143.489548 C 579.029175 143.489548 586.529297 135.987762 586.529297 125.091431 C 586.529297 114.255264 579.029175 106.690887 569.507751 106.690887 Z M 570.402893 113.181503 C 576.355896 113.181503 579.394897 115.264008 579.394897 120.269196 C 579.394897 124.735107 576.654236 126.576843 572.960693 126.995758 L 579.866516 137.831924 L 575.287537 137.831924 L 568.920654 127.294296 L 565.111633 127.294296 L 565.111633 137.831924 L 561.061951 137.831924 L 561.061951 113.181503 L 570.402893 113.181503 Z M 512.798462 102.675171 C 512.798462 102.675171 536.006348 107.887421 536.482788 131.01387 L 506.390717 131.01387 L 512.798462 102.675171 Z M 355.327118 102.675171 L 349.068573 131.01387 L 315.516357 131.01387 C 317.029877 127.650589 318.5578 125.223846 320.978455 121.797958 C 327.840973 111.794785 337.903748 104.013748 355.327118 102.675171 L 355.327118 102.675171 Z M 569.986633 116.636276 L 565.111633 116.636276 L 565.111633 123.839523 L 569.632874 123.839523 C 572.664734 123.839523 575.345215 123.541 575.345215 119.970673 C 575.345215 116.992584 572.431335 116.636276 569.986633 116.636276 Z"/>
                    </g>
                </g>
            </g>
        </g>
    </g>
</svg>
